# xmcd CD database file
#
# Track frame offsets:
#	150
#	19537
#	40652
#
# Disc length: 782 seconds
#
# Revision: 0
# Processed by: cddbd v1.5.1PL2 Copyright (c) Steve Scherf et al.
# Submitted via: CDex 1.51
#
DISCID=15030c03
DTITLE=Double - Call Me
DYEAR=2006
DGENRE=R&B
TTITLE0=Call Me
TTITLE1=Thi close
TTITLE2=Call Me(Remix Ver)
EXTD=YEAR: 2006
EXTT0=
EXTT1=
EXTT2=
PLAYORDER=
